:version 1.10
:name ASF
:units
  mass 1
  length 1
  angle deg
:documentation
  ASF file generated by Kaydara
:root
  axis xyz
  order  tx ty tz rx ry rz
  position 0 0 0
  orientation 0 0 0
:bonedata
  begin
    id 1
    name RightUpLegDummy
    direction -0.718183 -0.695806 0.00816078
    length 4.904
    axis 0 0 0 xyz
  end
  begin
    id 2
    name RightUpLeg
    direction -0.0736652 -0.994202 0.0783343
    length 17.4976
    axis -2.72909 -3.00389 -4.00133 xyz
    dof rx ry rz
  end
  begin
    id 3
    name RightLeg
    direction -0.0389037 -0.994596 -0.0962598
    length 16.5821
    axis 3.95836 -18.5909 -4.46993 xyz
    dof rx ry rz
  end
  begin
    id 4
    name RightFoot
    direction -0.311643 -0.412678 0.855906
    length 3.77069
    axis -1.99483 -18.8351 -3.27644 xyz
    dof rx ry rz
  end
  begin
    id 5
    name RightToes
    direction -0.317852 0.0389852 0.947339
    length 3.85082
    axis -2.00228 -18.1713 -3.25211 xyz
    dof rx ry rz
  end
  begin
    id 6
    name SpineDummy
    direction 8.3039e-015 1 4.44677e-016
    length 4.6813
    axis 0 0 0 xyz
  end
  begin
    id 7
    name Spine
    direction -0.000262373 0.999988 0.00493267
    length 10.1015
    axis -0.00246081 0.00062579 0.0150362 xyz
    dof rx ry rz
  end
  begin
    id 8
    name Spine1
    direction 0 0 0
    length 0
    axis -0.00349562 0.000650293 0.0196666 xyz
    dof rx ry rz
  end
  begin
    id 9
    name HEadDummy
    direction -0.000343232 0.999999 0.00123745
    length 3.43865
    axis -0.00349562 0.000650293 0.0196666 xyz
  end
  begin
    id 10
    name HEad
    direction -0.0461221 0.980933 0.188796
    length 5.12695
    axis -0.00351404 -7.04812 0.0199272 xyz
    dof rx ry rz
  end
  begin
    id 11
    name LeftShoulder1Dummy
    direction 0.998904 -0.0399089 -0.0244534
    length 3.5433
    axis -0.00349562 0.000650293 0.0196666 xyz
  end
  begin
    id 12
    name LeftShoulder1
    direction 0.99951 1.64443e-005 0.0312999
    length 4.05031
    axis -0.00349562 0.000650293 0.0196666 xyz
    dof rx ry rz
  end
  begin
    id 13
    name LeftArm
    direction 0.984791 0.0515299 0.165927
    length 12.9126
    axis -64.823 -10.7743 5.20463 xyz
    dof rx ry rz
  end
  begin
    id 14
    name LeftForeArm
    direction 0.984968 0.0534808 0.16425
    length 10.8596
    axis -30.0462 -7.70601 1.87451 xyz
    dof rx ry rz
  end
  begin
    id 15
    name LeftHand
    direction 0.975871 0.0289682 0.216418
    length 6.62295
    axis -20.1348 -6.98077 1.86072 xyz
    dof rx ry rz
  end
  begin
    id 16
    name RightShoulderDummy
    direction -0.998877 -0.0405946 -0.0244307
    length 3.5433
    axis -0.00349562 0.000650293 0.0196666 xyz
  end
  begin
    id 17
    name RightShoulder
    direction -0.998933 -0.0249743 -0.0388558
    length 4.05031
    axis -0.0205316 -4.02113 1.41395 xyz
    dof rx ry rz
  end
  begin
    id 18
    name RightArm
    direction -0.997559 0.068664 0.0127103
    length 12.9638
    axis -67.3882 1.84188 -6.15987 xyz
    dof rx ry rz
  end
  begin
    id 19
    name RightForeArm
    direction -0.991508 0.0912848 0.0926241
    length 10.8312
    axis -22.1975 3.41087 -4.28711 xyz
    dof rx ry rz
  end
  begin
    id 20
    name RightHand
    direction -0.989262 0.0600788 0.133232
    length 6.57864
    axis -12.2911 2.17515 -4.39675 xyz
    dof rx ry rz
  end
  begin
    id 21
    name LeftUpLegDummy
    direction 0.718183 -0.695806 0.00816078
    length 4.904
    axis 0 0 0 xyz
  end
  begin
    id 22
    name LeftUpLeg
    direction 0.0831398 -0.99469 0.0606531
    length 17.4976
    axis -1.71016 2.29552 4.63832 xyz
    dof rx ry rz
  end
  begin
    id 23
    name LeftLeg
    direction 0.0498442 -0.991778 -0.117862
    length 16.5821
    axis 5.13757 15.5727 5.13348 xyz
    dof rx ry rz
  end
  begin
    id 24
    name LeftFoot
    direction 0.269026 -0.433896 0.85986
    length 3.77069
    axis -0.576502 15.6961 4.10267 xyz
    dof rx ry rz
  end
  begin
    id 25
    name LeftToes
    direction 0.277311 0.0251143 0.960452
    length 3.85048
    axis -0.576502 15.6961 4.10267 xyz
    dof rx ry rz
  end
:hierarchy
  begin
    root RightUpLegDummy SpineDummy LeftUpLegDummy
    RightUpLegDummy RightUpLeg
    RightUpLeg RightLeg
    RightLeg RightFoot
    RightFoot RightToes
    SpineDummy Spine
    Spine Spine1
    Spine1 HEadDummy LeftShoulder1Dummy RightShoulderDummy
    HEadDummy HEad
    LeftShoulder1Dummy LeftShoulder1
    LeftShoulder1 LeftArm
    LeftArm LeftForeArm
    LeftForeArm LeftHand
    RightShoulderDummy RightShoulder
    RightShoulder RightArm
    RightArm RightForeArm
    RightForeArm RightHand
    LeftUpLegDummy LeftUpLeg
    LeftUpLeg LeftLeg
    LeftLeg LeftFoot
    LeftFoot LeftToes
  end

:SAMPLES-PER-SECOND 30
:FULLY-SPECIFIED
:DEGREES
16
root  -7.31381 40.7833 103.637 179.986 8.23027 -179.943
RightUpLeg  0.397879 -0.219497 1.27455
RightLeg  0.599981 -4.10697 0.796001
RightFoot  -0.099347 0.220632 -1.98751
RightToes  3.97569e-016 -3.18055e-015 -2.98177e-016
Spine  -4.21783 0.514047 -0.23248
Spine1  9.18193 0.26676 1.38213
HEad  -4.28443 -2.7091 -1.57449
LeftShoulder1  -3.88251e-019 9.70628e-020 -3.87848e-018
LeftArm  -30.1169 56.4903 -71.0369
LeftForeArm  -0.941673 -11.9486 -1.89381
LeftHand  -0.662894 -2.88742 9.95502
RightShoulder  9.28496 11.3863 42.0388
RightArm  9.43673 -39.064 13.2656
RightForeArm  9.10067 15.0323 -5.02783
RightHand  -0.95706 3.78508 -12.0172
LeftUpLeg  1.09353 -1.97928 -3.11267
LeftLeg  0.684658 9.53911 0.522783
LeftFoot  -1.53544 -0.246718 2.37118
LeftToes  4.86531e-011 4.41684e-011 -2.86034e-011
17
root  -7.31115 40.7831 103.63 179.971 8.30077 -179.947
RightUpLeg  0.41407 -0.208211 1.28136
RightLeg  0.598748 -4.05064 0.781192
RightFoot  -0.107298 0.220147 -1.9873
RightToes  3.97569e-016 -3.18055e-015 -2.98177e-016
Spine  -4.25156 0.494719 -0.273017
Spine1  9.36608 0.214528 1.51102
HEad  -4.24952 -2.68138 -1.64727
LeftShoulder1  -3.88251e-019 9.70628e-020 -3.87848e-018
LeftArm  -30.2201 56.4667 -71.1148
LeftForeArm  -0.978117 -11.796 -1.90235
LeftHand  -0.65618 -2.71106 10.0724
RightShoulder  9.25163 11.3676 41.9291
RightArm  9.00289 -38.9392 13.4511
RightForeArm  9.59347 14.7884 -4.93694
RightHand  -0.944401 3.61041 -12.0807
LeftUpLeg  1.14063 -1.98025 -3.11577
LeftLeg  0.66412 9.60317 0.516662
LeftFoot  -1.54344 -0.240463 2.31166
LeftToes  4.86531e-011 4.41684e-011 -2.86034e-011
18
root  -7.3059 40.7844 103.619 -179.965 8.36974 -179.93
RightUpLeg  0.376548 -0.167261 1.31787
RightLeg  0.554794 -4.02631 0.782772
RightFoot  -0.0860128 0.221764 -2.00783
RightToes  3.97569e-016 -3.18055e-015 -2.98177e-016
Spine  -4.36626 0.474202 -0.274306
Spine1  9.52352 0.165902 1.60085
HEad  -4.309 -2.59442 -1.70812
LeftShoulder1  -3.88251e-019 9.70628e-020 -3.87848e-018
LeftArm  -30.3162 56.4517 -71.1667
LeftForeArm  -0.973866 -11.5597 -1.92027
LeftHand  -0.639033 -2.56059 10.0024
RightShoulder  9.2465 11.362 41.9186
RightArm  8.5399 -38.7215 13.5132
RightForeArm  10.378 14.4437 -4.79196
RightHand  -0.903283 3.48207 -11.7216
LeftUpLeg  1.12132 -1.94652 -3.08166
LeftLeg  0.626833 9.63539 0.478734
LeftFoot  -1.5429 -0.241359 2.32634
LeftToes  4.86531e-011 4.41684e-011 -2.86034e-011
19
root  -7.29862 40.7861 103.603 -179.865 8.40508 -179.906
RightUpLeg  0.330431 -0.117892 1.36473
RightLeg  0.481454 -4.0445 0.797838
RightFoot  -0.0572437 0.224488 -2.03914
RightToes  3.97569e-016 -3.18055e-015 -2.98177e-016
Spine  -4.5354 0.439557 -0.317838
Spine1  9.67691 0.0879133 1.75103
HEad  -4.39896 -2.49546 -1.78879
LeftShoulder1  -3.88251e-019 9.70628e-020 -3.87848e-018
LeftArm  -30.3726 56.4818 -71.22
LeftForeArm  -0.996058 -11.352 -1.95946
LeftHand  -0.629473 -2.58404 9.8277
RightShoulder  9.23566 11.3535 41.8885
RightArm  8.27691 -38.5432 13.4994
RightForeArm  10.9235 14.1849 -4.66582
RightHand  -0.854309 3.28753 -11.334
LeftUpLeg  1.06959 -1.92416 -3.04437
LeftLeg  0.576165 9.65339 0.452244
LeftFoot  -1.51814 -0.244164 2.36019
LeftToes  4.86531e-011 4.41684e-011 -2.86034e-011
20
root  -7.29208 40.7885 103.583 -179.796 8.40158 -179.909
RightUpLeg  0.318154 -0.113691 1.36506
RightLeg  0.427364 -4.0569 0.825424
RightFoot  -0.0577377 0.225167 -2.04906
RightToes  3.97569e-016 -3.18055e-015 -2.98177e-016
Spine  -4.69549 0.401065 -0.46326
Spine1  9.84922 -0.013015 1.99677
HEad  -4.46066 -2.39898 -1.84459
LeftShoulder1  -3.88251e-019 9.70628e-020 -3.87848e-018
LeftArm  -30.4191 56.5498 -71.3132
LeftForeArm  -0.963945 -11.198 -1.99867
LeftHand  -0.644939 -2.86167 9.72129
RightShoulder  9.1751 11.3233 41.6796
RightArm  8.18568 -38.5729 13.5662
RightForeArm  10.9063 14.0748 -4.58202
RightHand  -0.822726 2.83726 -11.4966
LeftUpLeg  1.08596 -1.96839 -3.06563
LeftLeg  0.43912 9.70178 0.44261
LeftFoot  -1.44401 -0.243279 2.35439
LeftToes  4.86531e-011 4.41684e-011 -2.86034e-011
21
root  -7.28597 40.7913 103.562 -179.775 8.3802 -179.932
RightUpLeg  0.343255 -0.147948 1.33031
RightLeg  0.406209 -4.04636 0.860149
RightFoot  -0.0837356 0.225421 -2.05443
RightToes  3.97569e-016 -3.18055e-015 -2.98177e-016
Spine  -4.76741 0.371891 -0.598354
Spine1  9.98486 -0.0878191 2.17685
HEad  -4.49744 -2.33924 -1.84953
LeftShoulder1  -3.88251e-019 9.70628e-020 -3.87848e-018
LeftArm  -30.504 56.6183 -71.4043
LeftForeArm  -0.803118 -11.0635 -2.00764
LeftHand  -0.680575 -3.16794 9.87628
RightShoulder  9.09995 11.2878 41.4146
RightArm  8.14622 -38.7577 13.6724
RightForeArm  10.7061 14.0515 -4.55403
RightHand  -0.818614 2.42516 -12.0122
LeftUpLeg  1.17923 -2.03066 -3.11508
LeftLeg  0.248807 9.7454 0.422553
LeftFoot  -1.35873 -0.242562 2.34962
LeftToes  4.86531e-011 4.41684e-011 -2.86034e-011
22
root  -7.27841 40.7929 103.545 -179.779 8.34135 -179.934
RightUpLeg  0.395791 -0.171775 1.3206
RightLeg  0.388283 -4.05742 0.894405
RightFoot  -0.10443 0.228539 -2.08927
RightToes  3.97569e-016 -3.18055e-015 -2.98177e-016
Spine  -4.7143 0.342594 -0.636074
Spine1  10.0215 -0.136133 2.23534
HEad  -4.52623 -2.35425 -1.89676
LeftShoulder1  -3.88251e-019 9.70628e-020 -3.87848e-018
LeftArm  -30.6499 56.658 -71.4744
LeftForeArm  -0.652093 -10.9257 -2.00104
LeftHand  -0.700548 -3.14514 10.1888
RightShoulder  9.07156 11.2748 41.313
RightArm  8.09743 -38.8868 13.6475
RightForeArm  10.8518 14.0429 -4.59242
RightHand  -0.841889 2.5779 -12.129
LeftUpLeg  1.26341 -2.03817 -3.11882
LeftLeg  0.13727 9.71309 0.397363
LeftFoot  -1.32397 -0.246314 2.39122
LeftToes  4.86531e-011 4.41684e-011 -2.86034e-011
